<?xml version="1.0" encoding="UTF-8"?>
<svg id="Layer_1" xmlns="http://www.w3.org/2000/svg" version="1.1" viewBox="0 0 1080 1080">
  <!-- Generator: Adobe Illustrator 29.7.0, SVG Export Plug-In . SVG Version: 2.1.1 Build 9)  -->
  <defs>
    <style>
      .st0 {
        fill: #0d452e;
      }

      .st1 {
        fill: #0c432e;
      }

      .st2 {
        fill: #da9c2d;
      }

      .st3 {
        fill: none;
        stroke: #fff;
        stroke-miterlimit: 10;
      }

      .st4 {
        fill: #0a432c;
      }

      .st5 {
        fill: #da9e2e;
      }
    </style>
  </defs>
  <g>
    <path class="st0" d="M136.9,690.3h37.5c1.4,0,2.7.9,3.1,2.3l31.9,93.7h.4l30.1-93.6c.4-1.4,1.7-2.3,3.2-2.3h37.4c1.8,0,3.3,1.5,3.3,3.3v132.8c0,1.8-1.5,3.3-3.3,3.3h-22.1c-1.8,0-3.3-1.5-3.3-3.3v-95.5h-.4l-33.4,96.6c-.5,1.3-1.7,2.2-3.1,2.2h-18.9c-1.4,0-2.7-.9-3.1-2.2l-33.4-95.6h-.4v94.5c0,1.8-1.5,3.3-3.3,3.3h-22.1c-1.8,0-3.3-1.5-3.3-3.3v-132.8c0-1.8,1.5-3.3,3.3-3.3Z"/>
    <path class="st0" d="M326.5,786c-2,0-3.5,1.8-3.3,3.7,1.8,15,10.2,21.8,24.5,21.8s18.4-5.6,21.2-11.3,1.7-1.8,3-1.8h17.4c2.4,0,4,2.4,3.1,4.6-8.4,20.5-24.3,29.4-45.6,29.4-31.8,0-51.6-21.9-51.6-53.1s20.9-53.3,51.6-53.3,49.8,26.9,49.2,56.7c0,1.8-1.5,3.3-3.3,3.3h-66.1ZM363.9,768.4c2.2,0,3.8-2.1,3.2-4.2-3-11.4-9.1-17.3-21.2-17.3s-20.7,9.7-22.5,17.4,1.1,4.1,3.2,4.1h37.2Z"/>
    <path class="st0" d="M480.3,816.8h-.4c-6.4,10.9-17.8,15.6-30.7,15.6-30.5,0-45.3-26.2-45.3-54.1s15-52.3,44.7-52.3,23.6,5.1,29.9,15h.4v-47.5c0-1.8,1.5-3.3,3.3-3.3h21.1c1.8,0,3.3,1.5,3.3,3.3v132.8c0,1.8-1.5,3.3-3.3,3.3h-19.7c-1.8,0-3.3-1.5-3.3-3.3v-9.6ZM456.1,746.9c-18.2,0-24.4,15.6-24.4,32.2s7.2,32.4,24.4,32.4,23.8-16,23.8-32.6-5.9-32-23.8-32Z"/>
    <path class="st0" d="M593,829.7h-29.8c-1.4,0-2.7-.9-3.2-2.3l-43.2-132.8c-.7-2.1.9-4.4,3.2-4.4h24.6c1.4,0,2.7.9,3.2,2.3l30.3,95.7h.4l30.7-95.7c.4-1.4,1.7-2.3,3.2-2.3h24.6c2.3,0,3.9,2.2,3.2,4.4l-44.1,132.8c-.5,1.4-1.7,2.3-3.2,2.3Z"/>
    <path class="st0" d="M638.5,759.8c-2,0-3.6-1.8-3.3-3.8,3.5-22.9,25.6-29.9,47.1-29.9s44.3,4.5,44.3,28.7v52.5c0,6.8.5,13.6,1.8,18.3.6,2.1-1,4.2-3.2,4.2h-20.7c-1.5,0-2.8-1-3.2-2.4s-.3-1.1-.4-1.6c-.5-2.3-3.3-3.3-5.2-1.9-8.4,6.3-19.2,8.6-29.6,8.6-19.1,0-34.4-9.6-34.4-30.3s17.2-28.3,34.4-30.7c17-2.5,32.8-2,32.8-13.3s-8.2-13.7-18-13.7-16.2,3.6-18,12.6c-.3,1.5-1.7,2.7-3.3,2.7h-21.2ZM698.9,785.9c0-2.3-2.2-3.9-4.4-3.2-5.1,1.9-12.2,2.3-18.7,3.4-8.6,1.8-16.4,4.7-16.4,14.8s8,12.9,17,12.9c21.7,0,22.5-17.2,22.5-23.2v-4.8Z"/>
    <path class="st0" d="M831.7,829.7h-19.7c-1.8,0-3.3-1.5-3.3-3.3v-10.7h-.6c-7,11.3-19.1,16.8-30.9,16.8-29.5,0-36.9-16.6-36.9-41.6v-58.8c0-1.8,1.5-3.3,3.3-3.3h21.1c1.8,0,3.3,1.5,3.3,3.3v53.7c0,16.6,4.9,24.8,17.8,24.8s21.5-8.4,21.5-28.9v-49.6c0-1.8,1.5-3.3,3.3-3.3h21.1c1.8,0,3.3,1.5,3.3,3.3v94.3c0,1.8-1.5,3.3-3.3,3.3Z"/>
    <path class="st0" d="M848.5,690.3h21.1c1.8,0,3.3,1.5,3.3,3.3v132.8c0,1.8-1.5,3.3-3.3,3.3h-21.1c-1.8,0-3.3-1.5-3.3-3.3v-132.8c0-1.8,1.5-3.3,3.3-3.3Z"/>
    <path class="st0" d="M929.4,728.7h13.7c1.8,0,3.3,1.5,3.3,3.3v11.9c0,1.8-1.5,3.3-3.3,3.3h-13.7c-1.8,0-3.3,1.5-3.3,3.3v43.2c0,8.9,7.6,15.8,16.5,15s.1,0,.2,0c2-.2,3.6,1.3,3.6,3.3v14.9c0,1.7-1.3,3.1-2.9,3.3-4.1.5-8.9.6-13.3.6-17,0-31.8-3.9-31.8-24v-56.2c0-1.8-1.5-3.3-3.3-3.3h-10.1c-1.8,0-3.3-1.5-3.3-3.3v-11.9c0-1.8,1.5-3.3,3.3-3.3h10.1c1.8,0,3.3-1.5,3.3-3.3v-23.6c0-1.8,1.5-3.3,3.3-3.3h21.1c1.8,0,3.3,1.5,3.3,3.3v23.6c0,1.8,1.5,3.3,3.3,3.3Z"/>
  </g>
  <g>
    <path class="st5" d="M320.2,882.5c0-1.1.9-2,2-2h31.8c11.2,0,18.4,7.8,18.4,17.3s-3,12.9-9.9,15.7v.2c6.8,1.8,8.7,8.3,9.1,14.7.2,3.1.2,8.5,1.4,12.3s-.6,2.6-1.9,2.6h-9.2c-.9,0-1.7-.6-1.9-1.4-1.1-3.9-1.1-9.2-1.7-13.6-1-6.6-3.5-9.5-10.4-9.5h-11.8c-1.1,0-2,.9-2,2v20.5c0,1.1-.9,2-2,2h-9.8c-1.1,0-2-.9-2-2v-58.7ZM333.9,906.8c0,1.1.9,2,2,2h13.1c6.1,0,9.5-2.6,9.5-9s-3.3-8.7-9.5-8.7h-13.1c-1.1,0-2,.9-2,2v13.6Z"/>
    <path class="st5" d="M396.1,880.5h16c.9,0,1.6.5,1.9,1.4l14.2,41.8h.2l13.4-41.7c.3-.8,1-1.4,1.9-1.4h15.9c1.1,0,2,.9,2,2v58.7c0,1.1-.9,2-2,2h-8.9c-1.1,0-2-.9-2-2v-42.4h-.2l-14.9,43.1c-.3.8-1,1.3-1.9,1.3h-7.8c-.9,0-1.6-.5-1.9-1.3l-14.9-42.6h-.2v42c0,1.1-.9,2-2,2h-8.9c-1.1,0-2-.9-2-2v-58.7c0-1.1.9-2,2-2Z"/>
    <path class="st5" d="M527.7,901.6c-.9,0-1.7-.6-1.9-1.5-1.6-5.5-7.1-9.5-13.4-9.5-12.4,0-17,10.5-17,21.5s4.7,21,17,21,12.5-5.1,14-12.4c.2-.9,1-1.6,2-1.6h9.4c1.2,0,2.2,1.1,2,2.3-2.2,14.3-12.7,23.3-27.3,23.3s-30.8-14.5-30.8-32.6,11.4-33.1,30.8-33.1,24.1,7.2,26.7,20.2-.7,2.4-2,2.4h-9.4Z"/>
    <path class="st5" d="M561.8,880.5h9.8c1.1,0,2,.9,2,2v20c0,1.1.9,2,2,2h21.4c1.1,0,2-.9,2-2v-20c0-1.1.9-2,2-2h9.8c1.1,0,2,.9,2,2v58.7c0,1.1-.9,2-2,2h-9.8c-1.1,0-2-.9-2-2v-23c0-1.1-.9-2-2-2h-21.4c-1.1,0-2,.9-2,2v23c0,1.1-.9,2-2,2h-9.8c-1.1,0-2-.9-2-2v-58.7c0-1.1.9-2,2-2Z"/>
    <path class="st5" d="M678.9,901.6c-.9,0-1.7-.6-1.9-1.5-1.6-5.5-7.1-9.5-13.4-9.5-12.4,0-17,10.5-17,21.5s4.7,21,17,21,12.5-5.1,14-12.4,1-1.6,2-1.6h9.4c1.2,0,2.2,1.1,2,2.3-2.2,14.3-12.7,23.3-27.3,23.3s-30.8-14.5-30.8-32.6,11.4-33.1,30.8-33.1,24.1,7.2,26.7,20.2-.7,2.4-2,2.4h-9.4Z"/>
    <path class="st5" d="M718.5,922.4c1,0,1.9.7,2,1.7.8,7.1,6.9,9.9,13.8,9.9s12.2-1.4,12.2-7.8-9.4-7.9-18.6-10.4c-9.3-2.5-18.7-6.1-18.7-17.8s12.1-19,23.4-19,23.9,5.1,25,18-.8,2.1-2,2.1h-9.5c-1,0-1.8-.7-2-1.7-1.1-6.1-6.1-7.8-12.2-7.8s-9.5,1.8-9.5,7.1,3,5.4,18.7,9.5c4.6,1.1,18.6,4,18.6,18.3s-9,20.1-26.1,20.1-25.6-6.2-26.6-20.2c0-1.2.9-2.1,2-2.1h9.4Z"/>
  </g>
  <polygon class="st3" points="-981.5 188.2 -983.1 188.7 -983.1 188.2 -981.5 188.2"/>
  <polygon class="st3" points="-981.5 188.2 -983.1 188.7 -983.1 188.2 -981.5 188.2"/>
  <polygon class="st3" points="-981.5 188.2 -983.1 188.7 -983.1 188.2 -981.5 188.2"/>
  <polygon class="st3" points="-981.5 188.2 -983.1 188.7 -983.1 188.2 -981.5 188.2"/>
  <g>
    <path class="st1" d="M762,181.6c-52.8-16.8-174.1-55.4-211-67.2-7.1-2.3-14.7-2.3-21.8,0-37,11.8-158.1,50.3-211,67.2-14.9,4.8-25.1,18.6-25.1,34.3v197.6c0,5.7,1.3,11.3,3.9,16.3,49.2,95.8,129.9,173.4,228.3,218.6,9.4,4.3,20.2,4.3,29.6,0,89-40.9,163.5-108.2,213.3-191.6,2-3.3,3.9-6.6,5.8-10,3.1-5.5,6.1-11,9-16.7,1.9-3.8,3.2-7.9,3.7-12.1.2-1.4.3-2.8.3-4.3v-198c0-15.6-10.1-29.4-25-34.2ZM678.1,406.5c0,4.9-4,8.8-8.9,8.8h-72.4c-4.9,0-8.8,4-8.8,8.9v72.4c0,4.9-4,8.9-8.9,8.9h-78.3c-4.9,0-8.8-4-8.8-8.9v-72.4c0-4.9-4-8.9-8.9-8.9h-72.4c-4.9,0-8.9-4-8.9-8.8v-78.3c0-4.9,4-8.9,8.9-8.9h72.4c4.9,0,8.9-4,8.9-8.8v-72.4c0-4.9,4-8.8,8.8-8.8h78.3c4.9,0,8.9,4,8.9,8.8v72.4c0,4.9,4,8.8,8.8,8.8h72.4c4.9,0,8.9,4,8.9,8.9v78.3Z"/>
    <path class="st4" d="M766,269.9h0c34.5,0,62.6,28,62.6,62.6v120.5c0,2.1-1.7,3.8-3.8,3.8h-117.4c-2.1,0-3.8-1.7-3.8-3.8v-120.5c0-34.5,28-62.6,62.6-62.6Z"/>
    <path class="st2" d="M713.5,442.9v-109.7c0-28,21.6-51.8,49.6-53.3s55.5,22.5,55.5,52.5v110.5c0,2.1-1.7,3.8-3.8,3.8h-97.4c-2.1,0-3.8-1.7-3.8-3.8Z"/>
    <path class="st4" d="M790.6,336.6c0-14.5-12.6-26.1-27.4-24.4s-20.2,10.2-21.6,21.4c-1.3,10.8,4.4,20.5,13.2,25s.6.6.5,1l-12.7,56.2c-.3,1.2.6,2.3,1.9,2.3h43.1c1.2,0,2.1-1.1,1.9-2.3l-12.7-56.2c0-.4.1-.8.5-1,7.9-4.1,13.4-12.3,13.4-21.9Z"/>
  </g>
</svg>