<svg width="14" height="15" viewBox="0 0 14 15" fill="none" xmlns="http://www.w3.org/2000/svg">
<path d="M13.0223 2.90911C11.9123 2.80069 10.8023 2.71938 9.68548 2.65839V2.65162L9.53381 1.7707C9.43039 1.14728 9.27872 0.212158 7.66548 0.212158H5.8592C4.25285 0.212158 4.10118 1.10663 3.99087 1.76392L3.84609 2.63129C3.20493 2.67194 2.56377 2.7126 1.92261 2.77359L0.516193 2.90911C0.226636 2.93622 0.0198101 3.18694 0.0473869 3.46477C0.0749637 3.7426 0.323155 3.94588 0.612711 3.91878L2.01913 3.78325C5.63169 3.43089 9.27183 3.56641 12.9258 3.92555H12.9809C13.2429 3.92555 13.4704 3.72904 13.498 3.46477C13.5084 3.3294 13.4644 3.19543 13.3754 3.09156C13.2865 2.98769 13.1597 2.9222 13.0223 2.90911ZM11.7537 4.88101C11.5883 4.7116 11.3608 4.61673 11.1264 4.61673H2.4121C2.17769 4.61673 1.94329 4.7116 1.78473 4.88101C1.62616 5.05042 1.53653 5.28081 1.55032 5.51798L1.97776 12.4704C2.0536 13.5004 2.15012 14.7879 4.55619 14.7879H8.98227C11.3883 14.7879 11.4849 13.5072 11.5607 12.4704L11.9881 5.52475C12.0019 5.28081 11.9123 5.05042 11.7537 4.88101ZM7.91367 11.393H5.6179C5.33524 11.393 5.10084 11.1626 5.10084 10.8848C5.10084 10.607 5.33524 10.3766 5.6179 10.3766H7.91367C8.19633 10.3766 8.43073 10.607 8.43073 10.8848C8.43073 11.1626 8.19633 11.393 7.91367 11.393ZM8.49278 8.6825H5.04568C4.76302 8.6825 4.52862 8.4521 4.52862 8.17428C4.52862 7.89645 4.76302 7.66606 5.04568 7.66606H8.49278C8.77544 7.66606 9.00985 7.89645 9.00985 8.17428C9.00985 8.4521 8.77544 8.6825 8.49278 8.6825Z" fill="#4F4F4F"/>
</svg>
