<svg width="14" height="14" viewBox="0 0 14 14" fill="none" xmlns="http://www.w3.org/2000/svg">
<path d="M13.4371 13.7879H1.01748C0.734592 13.7879 0.5 13.5591 0.5 13.2832C0.5 13.0072 0.734592 12.7784 1.01748 12.7784H13.4371C13.72 12.7784 13.9545 13.0072 13.9545 13.2832C13.9545 13.5591 13.72 13.7879 13.4371 13.7879ZM12.0709 1.32525C10.7324 0.0196265 9.4214 -0.0140236 8.04835 1.32525L7.21347 2.13959C7.14448 2.20689 7.11688 2.31457 7.14448 2.40879C7.40836 3.29202 7.89634 4.09609 8.56326 4.74661C9.23019 5.39713 10.0545 5.8731 10.96 6.13049C11.0089 6.14611 11.0613 6.14808 11.1113 6.13619C11.1613 6.1243 11.2069 6.09902 11.2429 6.06319L12.0709 5.24886C12.754 4.58932 13.0852 3.94996 13.0852 3.30388C13.0921 2.63761 12.7609 1.99152 12.0709 1.32525ZM9.71809 6.74158C9.518 6.64736 9.3248 6.55314 9.13851 6.44546C8.98718 6.35753 8.83985 6.26322 8.69692 6.1628C8.57963 6.08877 8.44163 5.98109 8.31054 5.87341C8.26831 5.84338 8.22904 5.80958 8.19324 5.77246C7.96555 5.58401 7.71026 5.34173 7.48256 5.07253C7.46186 5.05907 7.42737 5.01196 7.37907 4.95139C7.31007 4.87063 7.19277 4.73603 7.08928 4.58124C6.99092 4.45466 6.90104 4.32203 6.82019 4.18417C6.70979 4.00246 6.61319 3.82075 6.5166 3.63231C6.50223 3.60217 6.4882 3.57188 6.47451 3.54145C6.37239 3.31734 6.07225 3.25206 5.89493 3.43002L1.94205 7.28065C1.85235 7.36814 1.76956 7.5364 1.74886 7.65081L1.37627 10.2284C1.30727 10.686 1.43837 11.1168 1.72816 11.4062C1.97655 11.6417 2.32154 11.7696 2.69413 11.7696C2.77692 11.7696 2.85972 11.7629 2.94252 11.7494L5.59203 11.386C5.71622 11.3658 5.88872 11.285 5.97152 11.1975L9.91956 7.34728C10.099 7.1723 10.0306 6.87281 9.79813 6.77523C9.77142 6.76407 9.74474 6.75286 9.71809 6.74158Z" fill="#4F4F4F"/>
</svg>
